# xmcd
#
# Track frame offsets:
#	150
#	16600
#	32452
#	46782
#	58549
#	69448
#	89173
#	103319
#	120349
#	136480
#
# Disc length: 1990 seconds
#
# Revision: 1
# Processed by: cddbd v1.4PL0 Copyright (c) Steve Scherf et al.
# Submitted via: audiograbber 1.81.01
#
DISCID=7c07c40a
DTITLE=Jerry Forney - Fat Dog Blues
DYEAR=2002
DGENRE=Blues
TTITLE0=More Pretty Girls
TTITLE1=Lake of Fire
TTITLE2=Come Back Home
TTITLE3=Babys So Fine
TTITLE4=Down To Dallas
TTITLE5=Fat Dog Blues
TTITLE6=Sail On
TTITLE7=Ohost
TTITLE8=Down In Jo Town
TTITLE9=Women Women Women
EXTD=
EXTT0=
EXTT1=
EXTT2=
EXTT3=
EXTT4=
EXTT5=
EXTT6=
EXTT7=
EXTT8=
EXTT9=
PLAYORDER=
